<?xml version="1.0" encoding="UTF-8"?>
<svg xmlns="http://www.w3.org/2000/svg" height="228" width="228" class="pyqrcode"><path transform="scale(4)" stroke="#000" class="pyqrline" d="M4 4.5h7m1 0h1m2 0h3m3 0h1m3 0h1m1 0h3m1 0h1m3 0h2m1 0h4m2 0h1m1 0h7m-49 1h1m5 0h1m2 0h5m3 0h1m1 0h2m1 0h2m2 0h1m4 0h1m1 0h2m3 0h3m1 0h1m5 0h1m-49 1h1m1 0h3m1 0h1m1 0h1m1 0h1m1 0h2m1 0h3m1 0h2m4 0h3m4 0h2m5 0h2m1 0h1m1 0h3m1 0h1m-49 1h1m1 0h3m1 0h1m2 0h2m2 0h2m1 0h2m1 0h1m1 0h2m1 0h1m2 0h4m2 0h1m1 0h2m2 0h1m2 0h1m1 0h3m1 0h1m-49 1h1m1 0h3m1 0h1m1 0h4m2 0h1m1 0h1m2 0h9m2 0h3m2 0h1m1 0h1m4 0h1m1 0h3m1 0h1m-49 1h1m5 0h1m4 0h1m2 0h1m3 0h1m2 0h2m3 0h1m2 0h3m2 0h1m1 0h3m3 0h1m5 0h1m-49 1h7m1 0h1m1 0h1m1 0h1m1 0h1m1 0h1m1 0h1m1 0h1m1 0h1m1 0h1m1 0h1m1 0h1m1 0h1m1 0h1m1 0h1m1 0h1m1 0h1m1 0h1m1 0h7m-41 1h1m1 0h2m2 0h1m2 0h2m1 0h3m3 0h4m1 0h3m3 0h1m1 0h2m-36 1h2m2 0h2m1 0h1m1 0h4m2 0h1m1 0h12m1 0h2m3 0h1m1 0h1m1 0h1m1 0h1m1 0h1m-48 1h4m2 0h2m5 0h3m2 0h1m1 0h1m3 0h2m2 0h1m2 0h5m1 0h1m1 0h1m1 0h5m-46 1h2m1 0h4m2 0h1m4 0h1m2 0h1m1 0h1m1 0h1m1 0h1m1 0h4m2 0h8m1 0h1m1 0h1m3 0h2m-47 1h2m3 0h6m1 0h2m1 0h1m3 0h2m2 0h1m1 0h1m1 0h1m1 0h1m1 0h1m1 0h1m1 0h1m2 0h1m2 0h3m1 0h1m-43 1h7m1 0h1m1 0h1m1 0h1m3 0h2m1 0h1m4 0h2m2 0h7m1 0h2m1 0h2m-43 1h1m5 0h1m3 0h2m2 0h1m1 0h2m1 0h2m2 0h1m2 0h4m3 0h1m5 0h1m3 0h1m-46 1h2m1 0h1m1 0h4m1 0h4m1 0h4m2 0h1m2 0h1m1 0h2m3 0h1m1 0h1m2 0h2m1 0h2m2 0h2m1 0h2m-48 1h1m1 0h3m1 0h2m1 0h1m1 0h1m3 0h1m1 0h1m1 0h2m2 0h1m1 0h2m5 0h3m2 0h2m2 0h2m2 0h1m-46 1h1m4 0h2m2 0h1m1 0h1m1 0h1m1 0h1m2 0h1m1 0h1m2 0h3m2 0h1m1 0h2m3 0h1m1 0h3m5 0h1m1 0h1m-49 1h1m1 0h2m1 0h1m1 0h2m1 0h3m1 0h3m2 0h2m1 0h2m1 0h2m1 0h1m1 0h1m2 0h1m2 0h1m2 0h1m2 0h1m1 0h1m1 0h2m-48 1h1m1 0h2m1 0h3m2 0h2m3 0h1m1 0h1m4 0h1m3 0h3m1 0h2m1 0h1m1 0h2m2 0h1m3 0h1m1 0h2m1 0h1m-48 1h3m3 0h1m1 0h2m1 0h1m3 0h3m1 0h3m2 0h1m1 0h2m1 0h1m6 0h3m2 0h4m1 0h1m-47 1h2m1 0h1m1 0h3m1 0h1m1 0h1m2 0h1m1 0h1m3 0h1m5 0h5m3 0h6m1 0h2m2 0h2m-46 1h1m4 0h1m2 0h2m7 0h1m2 0h1m3 0h3m2 0h5m1 0h4m1 0h1m1 0h1m1 0h1m-44 1h7m2 0h2m4 0h9m2 0h3m1 0h3m2 0h1m1 0h5m1 0h3m-49 1h2m2 0h1m3 0h4m1 0h1m1 0h4m3 0h1m3 0h2m1 0h2m4 0h1m4 0h1m3 0h2m2 0h1m-49 1h1m1 0h1m1 0h1m1 0h1m1 0h2m6 0h3m2 0h2m1 0h1m1 0h1m4 0h4m1 0h5m1 0h1m1 0h1m3 0h1m-49 1h1m2 0h2m3 0h1m2 0h2m4 0h1m4 0h1m3 0h1m3 0h4m1 0h2m3 0h1m3 0h2m1 0h1m-47 1h1m1 0h9m3 0h2m1 0h2m2 0h6m1 0h1m3 0h4m1 0h1m1 0h5m3 0h1m-49 1h2m1 0h1m1 0h1m4 0h1m8 0h1m1 0h1m3 0h2m1 0h4m2 0h1m2 0h1m1 0h3m1 0h2m1 0h1m-47 1h1m5 0h1m1 0h1m1 0h3m2 0h4m1 0h2m4 0h1m3 0h1m4 0h6m2 0h6m-47 1h4m1 0h1m1 0h2m1 0h1m1 0h2m2 0h1m1 0h2m1 0h1m3 0h2m2 0h1m1 0h1m1 0h1m1 0h1m3 0h2m2 0h2m-47 1h4m1 0h3m3 0h4m3 0h4m3 0h1m1 0h1m1 0h1m1 0h1m5 0h1m1 0h5m1 0h1m2 0h1m-49 1h1m1 0h3m2 0h2m1 0h2m1 0h1m3 0h1m5 0h2m1 0h2m4 0h2m4 0h4m5 0h2m-49 1h1m2 0h1m2 0h1m1 0h1m3 0h1m1 0h4m2 0h1m3 0h1m2 0h2m1 0h2m3 0h2m2 0h6m1 0h1m1 0h1m-49 1h2m1 0h1m3 0h1m1 0h2m2 0h1m1 0h1m1 0h6m1 0h1m2 0h1m1 0h2m1 0h1m1 0h3m1 0h1m3 0h1m1 0h1m1 0h1m-47 1h3m2 0h2m2 0h2m1 0h4m1 0h1m3 0h3m2 0h1m1 0h2m4 0h5m1 0h3m1 0h1m1 0h3m-49 1h4m4 0h1m3 0h3m1 0h1m2 0h5m4 0h1m1 0h3m2 0h1m1 0h1m1 0h1m3 0h1m1 0h1m1 0h2m-44 1h2m1 0h2m2 0h1m1 0h1m5 0h1m1 0h2m1 0h3m1 0h4m2 0h3m1 0h2m1 0h2m1 0h1m1 0h1m-46 1h1m2 0h1m1 0h2m3 0h3m2 0h1m2 0h2m1 0h2m1 0h3m1 0h2m1 0h1m2 0h1m4 0h3m1 0h1m1 0h1m-47 1h1m3 0h2m4 0h3m1 0h1m3 0h1m1 0h1m1 0h1m1 0h1m2 0h1m4 0h7m1 0h3m1 0h4m-48 1h3m3 0h1m1 0h1m1 0h2m5 0h2m7 0h2m5 0h2m1 0h4m2 0h1m1 0h3m-48 1h3m3 0h1m1 0h1m2 0h1m2 0h1m1 0h2m2 0h7m1 0h2m1 0h1m1 0h2m1 0h1m2 0h9m-40 1h3m2 0h1m1 0h1m5 0h2m3 0h3m6 0h1m4 0h1m3 0h2m-46 1h7m2 0h1m3 0h1m3 0h3m1 0h2m1 0h1m1 0h1m1 0h2m2 0h1m2 0h2m3 0h1m1 0h1m1 0h3m1 0h1m-49 1h1m5 0h1m1 0h1m3 0h1m2 0h1m3 0h2m1 0h1m3 0h1m1 0h3m1 0h3m2 0h2m1 0h1m3 0h2m2 0h1m-49 1h1m1 0h3m1 0h1m3 0h1m3 0h2m1 0h2m1 0h7m1 0h2m1 0h1m1 0h1m1 0h2m3 0h5m1 0h1m-47 1h1m1 0h3m1 0h1m4 0h3m3 0h1m2 0h3m2 0h3m2 0h1m1 0h3m1 0h3m3 0h1m2 0h4m-49 1h1m1 0h3m1 0h1m2 0h1m1 0h1m3 0h1m1 0h2m5 0h3m1 0h4m1 0h3m2 0h1m2 0h3m1 0h1m1 0h2m-49 1h1m5 0h1m3 0h1m3 0h1m3 0h2m1 0h5m1 0h2m1 0h1m1 0h3m2 0h2m1 0h3m1 0h1m3 0h1m-49 1h7m2 0h2m2 0h1m2 0h3m4 0h1m2 0h1m2 0h2m1 0h3m1 0h1m3 0h2m6 0h1"/></svg>
